<?xml version="1.0" encoding="utf-8"?>
<!-- Generator: Adobe Illustrator 28.0.0, SVG Export Plug-In . SVG Version: 6.00 Build 0)  -->
<svg version="1.1" id="Layer_1" xmlns="http://www.w3.org/2000/svg" xmlns:xlink="http://www.w3.org/1999/xlink" x="0px" y="0px"
	 viewBox="0 0 1000 1000" style="enable-background:new 0 0 1000 1000;" xml:space="preserve">
<style type="text/css">
	.st0{fill:#EFEFEF;}
	.st1{fill:#FF5B36;}
</style>
<g>
	<path class="st0" d="M226.58,8.43c0.22,1.13,0.81,2.33,0.62,3.39c-3.93,21.81,3.8,39.39,20.49,52.87
		c18.55,14.98,39.85,23.94,63.9,25.67c4.59,0.33,9.19,0.67,13.05,0.96c-0.65-6.35-2.03-12.42-1.7-18.39
		c0.62-11.12,7.09-19.26,15.73-25.66c12.77-9.47,27.42-14.64,42.92-17.11c15.8-2.51,31.82-3.71,47.7-1.07
		c7.28,1.21,14.71,3.4,21.24,6.77c12.03,6.2,14.88,20.61,7.26,31.92c-3.94,5.84-9.59,9.58-15.72,12.75
		c-11.4,5.89-23.86,7.42-36.32,9.01c-24.52,3.13-49.1,5.29-74.68,4.89c1.24,1.92,2.1,3.38,3.08,4.74
		c14.62,20.21,34.85,32.25,58.24,39.42c30.17,9.25,60.88,16.1,92.3,19.49c4.72,0.51,9.47,0.74,15.45,1.19
		c0-9.49,0.43-18.61-0.08-27.68c-1.27-22.46,8.84-39.35,24.36-54.45c19.59-19.05,42.76-29.35,69.81-30.99
		c14.69-0.89,29.48-2.11,44.12-1.32c10.3,0.55,20.45,4.15,30.62,6.6c2.06,0.5,3.96,1.82,5.81,2.95
		c11.45,6.97,14.29,15.59,8.67,27.74c-6.38,13.78-15.92,25.26-28.38,33.79c-24.47,16.74-51.95,26.92-80.24,35.03
		c-23.12,6.63-46.44,12.29-70.8,11.35c-0.37-0.01-0.75,0.2-1.47,0.41c-0.04,8.44,0.27,16.84,2.93,24.96
		c1.22,3.73,1.73,3.84,9.33,4.64c0,7.27,0,14.58,0,21.9c0.44-0.18,0.89-0.37,1.33-0.55c1.18,1.7,2.87,3.24,3.46,5.13
		c3.12,10.01,9.69,17.44,17.26,24.25c0.93,0.84,1.51,2.48,1.58,3.78c0.42,7.88,0.63,15.77,0.93,23.81c3.24,0.35,6.05,0.66,9.08,0.99
		c0,6.28,0,12.48,0,19.22c-2.24,0.14-4.23,0.44-6.2,0.34c-3.74-0.18-5.28,1.06-5.05,5.15c0.38,6.78,0.1,13.59,0.1,20.67
		c-3.85,0.46-7.31,0.87-11.24,1.34c-0.43-8.66-0.84-16.92-1.28-25.72c-10.65,0-21.09,0-31.92,0c0,8.01,0,16.26,0,24.76
		c-4.13,0.22-7.89,0.42-12.48,0.67c0-7.19-0.26-13.98,0.1-20.74c0.22-4.19-1.31-5.86-5.32-6.06c-2.44-0.12-4.85-0.73-7.5-1.16
		c0-6.14,0-12.24,0-18.77c2.54-0.34,5.17-0.69,8.24-1.1c0.47-7.74,1.1-15.47,1.33-23.22c0.12-3.78,0.92-6.85,4.15-9.18
		c6.34-4.57,9.44-11.55,12.78-18.23c1.46-2.92,2.83-5.2,6.71-4.56c0-7.6,0-14.96,0-22.61c1.07-0.27,2.01-0.5,1.92-0.48
		c-1.34-9.97-2.64-19.64-4.01-29.82c-4.65-0.4-9.77-0.72-14.87-1.29c-34.95-3.92-69.22-11.14-102.31-23.06
		c-21.96-7.91-40.14-21.3-52.87-41.39c-0.74-1.16-2.77-1.86-4.31-2.09c-12.51-1.9-25.39-2.42-37.5-5.75
		c-15.4-4.22-29.75-11.57-41.96-22.23c-17.64-15.4-25.27-34.44-20.04-57.85C225.49,8.43,226.04,8.43,226.58,8.43z M502.37,158.78
		c7.57,0,14.94,1.04,21.89-0.2c17.4-3.11,34.83-6.48,51.86-11.15c27.42-7.52,53.91-17.73,77.48-34.04
		c12.4-8.58,21.92-20.04,27.89-34.08c3.89-9.14,2.12-15.81-6.29-21.1c-4.88-3.07-10.39-5.66-15.97-7.03
		c-31.97-7.85-63.93-5.32-94.89,4.07c-24.75,7.5-42.87,25-55.83,47.24c-2.96,5.07-4.17,11.55-4.76,17.52
		c-1.04,10.57-1,21.24-1.38,31.88C502.3,154.16,502.37,156.45,502.37,158.78z M347.61,91.5c0.03,0.27,0.06,0.54,0.09,0.81
		c20.75-2.06,41.5-4.03,62.24-6.21c11.58-1.22,23.07-3.28,33.11-9.52c4.64-2.89,9.15-6.58,12.48-10.87
		c5.69-7.34,5.66-21.17-6.16-27.39c-3.58-1.89-7.39-3.66-11.31-4.55c-24.22-5.52-48.22-3.82-71.88,3.18
		c-12,3.55-23.21,8.87-31.97,18.2c-8.89,9.46-10.74,20.45-6.63,32.61c0.87,2.58,2.24,4.01,5.32,3.83
		C337.78,91.3,342.7,91.5,347.61,91.5z M489.97,289.92c12.8,0,25.13,0,37.61,0c0.43,8.75,0.84,16.85,1.25,25.14
		c2.2-0.24,3.78-0.41,5.85-0.64c0-8.64,0-17,0-25.56c3.08-0.16,5.68-0.11,8.2-0.53c0.99-0.17,2.52-1.36,2.58-2.17
		c0.27-3.89,0.12-7.82,0.12-12.02c-1.43-0.11-2.92-0.42-4.36-0.31c-3.73,0.31-4.9-1.31-4.89-4.97c0.02-6.81-0.38-13.63-0.78-20.43
		c-0.08-1.31-0.66-2.88-1.56-3.81c-6.99-7.28-13.98-14.49-17-24.56c-0.31-1.05-2.18-2.26-3.36-2.31c-4.21-0.15-8.47-0.03-12.66,0.42
		c-1.4,0.15-3.24,1.26-3.9,2.46c-4.1,7.56-7.95,15.2-14.99,20.66c-1.05,0.81-1.52,2.8-1.64,4.29c-0.72,9.07-1.27,18.15-1.87,27.24
		c-2.87,0.4-5.39,0.74-7.93,1.09c0,4.78,0,9.19,0,13.68c4.26,0.77,8.23,1.48,12.77,2.3c0,8.37,0,16.49,0,24.62c2.6,0,4.54,0,6.56,0
		C489.97,306.04,489.97,297.91,489.97,289.92z"/>
	<path class="st0" d="M387.97,431.63c8.19,1.58,11.29,4.69,11.47,11.24c0.19,7.23-2.69,10.42-11.47,12.46
		c0,15.07,0.01,30.2-0.01,45.33c-0.01,9.76-5.67,14.24-15.16,12.06c-5.27-1.21-7.73-4.55-7.75-10.91
		c-0.05-14.06-0.02-28.11-0.02-42.17c0-1.47,0-2.93,0-4.68c-22.47,0-44.53,0-66.81,0c-0.15-1.16-0.36-2.06-0.36-2.96
		c-0.02-35.21-0.04-70.42,0-105.63c0.01-8.22,4.53-12.39,12.6-11.9c6.74,0.41,10.29,4.53,10.3,12.16
		c0.03,26.75,0.01,53.49,0.01,80.24c0,1.49,0,2.98,0,4.76c14.71,0,29.23,0,44.24,0c0-1.45,0-2.9,0-4.35
		c0-20.47-0.03-40.94,0.02-61.41c0.02-7.7,3.84-11.7,11.01-11.82c7.78-0.13,11.87,3.81,11.89,11.76c0.06,20.33,0.02,40.67,0.02,61
		C387.97,428.33,387.97,429.82,387.97,431.63z"/>
	<path class="st0" d="M718.95,431.45c8.86,2.19,11.64,5.26,11.47,12.45c-0.16,6.59-3.32,9.77-11.47,11.25c0,7.01,0,14.09,0,21.16
		c0,8.73,0.11,17.47-0.04,26.2c-0.12,7.17-4.06,10.59-11.69,10.52c-7.3-0.07-11.11-3.52-11.17-10.62
		c-0.12-14.19-0.04-28.38-0.04-42.58c0-1.48,0-2.96,0-4.88c-22.43,0-44.59,0-66.99,0c-0.08-1.2-0.18-1.98-0.18-2.76
		c-0.01-35.21-0.02-70.42,0.01-105.63c0.01-7.75,3.76-11.86,10.78-12.1c7.86-0.26,12.11,3.85,12.12,11.98
		c0.04,26.88,0.02,53.77,0.02,80.65c0,1.47,0,2.94,0,4.62c14.78,0,29.19,0,44.24,0c0-1.37,0-2.8,0-4.24
		c0-20.61-0.04-41.21,0.02-61.82c0.02-7.57,3.98-11.54,11.23-11.61c7.54-0.06,11.64,3.88,11.66,11.58
		c0.07,20.47,0.02,40.94,0.03,61.41C718.95,428.54,718.95,430.03,718.95,431.45z"/>
	<path class="st0" d="M593.28,417.48c0.06,46.37-37.61,84.08-84.05,84.16c-46.66,0.07-84.37-37.57-84.38-84.21
		c-0.01-46.55,38.03-84.5,84.43-84.25C555.78,333.43,593.22,371,593.28,417.48z M509.13,490.4c40.26-0.07,72.93-32.73,72.94-72.94
		c0.01-40.14-32.81-73.05-72.88-73.08c-40.39-0.03-73.06,32.73-73.01,73.23C436.22,457.95,468.82,490.47,509.13,490.4z"/>
	<path class="st0" d="M663.58,990.91c0.23-0.96,0.12-2.33,0.73-2.83c19.7-16.15,30.72-38.02,39.72-61.04
		c8.87-22.68,13.95-46.26,13.1-70.73c-0.31-9.08-1.66-18.21-3.48-27.13c-4.14-20.31-16.88-34.08-34.82-43.49
		c-3.61-1.9-7.41-3.45-11.13-5.14c-0.46-0.21-1-0.23-1.53-0.34c-0.49,24.02-8.74,45.71-18.66,66.86c-4.42,9.43-10.38,17.97-18,25.18
		c-14.65,13.87-31.46,17.18-50.24,9.87c-14.93-5.82-26.67-16.16-38.25-26.89c-9.15-8.48-14.08-18.88-16.67-30.72
		c-4.05-18.53,2.19-34.3,18.05-44.68c13.91-9.1,29.55-13.64,45.96-14.25c24.95-0.93,49.57,1.96,74.36,9.89
		c-1.04-4.73-1.7-8.97-2.92-13.05c-5.88-19.66-16.51-36.64-31.41-50.5c-6.24-5.81-14.4-9.83-22.18-13.68
		c-28.43-14.1-58.55-23.75-88.86-32.86c-1.8-0.54-3.62-1.03-5.93-1.69c-0.46,4.57-0.88,8.86-1.32,13.14
		c-2.42,23.26-6.76,46.12-14.17,68.34c-3.35,10.05-8.55,19.1-14.53,27.82c-11.45,16.71-23.37,32.99-39.24,45.89
		c-13.54,11.01-28.62,18.98-46.39,19.09c-7.57,0.05-15.28-2.39-22.72-4.45c-12.42-3.45-24.09-8.72-34.56-16.39
		c-20.83-15.27-26.97-35.71-17.98-59.87c1.09-2.93,2.18-5.92,3.72-8.62c21.23-37.07,49.52-66.77,89.42-83.82
		c29.62-12.66,60.17-14.58,91.29-5.97c1.14,0.32,2.31,0.53,3.89,0.89c0-2.11,0.04-3.85-0.01-5.58
		c-1.31-48.99-2.64-97.98-3.95-146.97c-0.02-0.82-0.23-1.71,0.03-2.43c0.21-0.59,0.99-0.97,1.51-1.45c0.38,0.46,0.88,0.86,1.1,1.39
		c0.19,0.47,0.08,1.08,0.09,1.62c1.36,50.08,2.77,100.16,3.97,150.24c0.08,3.44,1.14,4.59,4.25,5.49
		c31.43,9.17,62.43,19.47,92.05,33.64c32.89,15.73,49.89,43.03,57.07,77.57c0.51,2.43,1.44,3.66,3.77,4.59
		c12.83,5.07,24.44,12.02,33.74,22.47c10.04,11.29,14.73,24.96,16.18,39.51c5.26,52.63-9.39,99.5-42.31,140.71
		c-3.27,4.1-7.6,7.36-11.43,11.01C664.47,991.35,664.03,991.13,663.58,990.91z M319.29,777.54c0.11,13.73,6.04,24.69,16.22,33.51
		c12.56,10.87,27.71,16.43,43.27,21.43c16.22,5.21,31.19,2.37,45.74-5.24c13.02-6.81,23.87-16.38,33.15-27.58
		c13.58-16.38,27.27-32.85,34.67-53.2c9.48-26.07,13.64-53.27,16.05-80.78c0.22-2.56-0.94-3.15-3.06-3.77
		c-23.76-6.93-47.69-7.57-71.48-0.91c-49.54,13.88-83.31,46.89-107.8,90.63C321.61,759.54,319.53,768.38,319.29,777.54z M598,767.88
		c-6.38,0.52-12.83,0.59-19.11,1.67c-13.25,2.28-26.04,6.08-37.11,14.16c-8.04,5.87-13.56,13.54-15.08,23.49
		c-2.11,13.87,0.88,27.31,9.32,37.99c11.19,14.16,25.09,25.84,41.94,33.31c7.45,3.3,15.23,5.15,23.47,4.36
		c12.75-1.23,22.46-7.93,30.5-17.34c12.4-14.5,19.42-31.73,24.79-49.77c3.23-10.85,6.87-21.57,6.45-33.15
		c-0.11-2.9-1-4.26-3.85-5.15C639.37,771.2,618.87,768.68,598,767.88z"/>
	<path class="st1" d="M489.97,289.92c0,7.99,0,16.12,0,24.58c-2.02,0-3.96,0-6.56,0c0-8.13,0-16.25,0-24.62
		c-4.54-0.82-8.51-1.53-12.77-2.3c0-4.48,0-8.9,0-13.68c2.54-0.35,5.06-0.7,7.93-1.09c0.6-9.09,1.15-18.17,1.87-27.24
		c0.12-1.49,0.59-3.48,1.64-4.29c7.04-5.46,10.89-13.11,14.99-20.66c0.65-1.2,2.5-2.31,3.9-2.46c4.19-0.44,8.45-0.57,12.66-0.42
		c1.18,0.04,3.05,1.26,3.36,2.31c3.02,10.07,10.01,17.28,17,24.56c0.89,0.93,1.48,2.5,1.56,3.81c0.4,6.8,0.8,13.62,0.78,20.43
		c-0.01,3.66,1.16,5.28,4.89,4.97c1.45-0.12,2.93,0.19,4.36,0.31c0,4.21,0.15,8.13-0.12,12.02c-0.06,0.81-1.59,2-2.58,2.17
		c-2.52,0.43-5.12,0.37-8.2,0.53c0,8.55,0,16.92,0,25.56c-2.06,0.23-3.65,0.4-5.85,0.64c-0.41-8.29-0.81-16.39-1.25-25.14
		C515.1,289.92,502.77,289.92,489.97,289.92z"/>
	<path class="st1" d="M509.13,490.4c-40.31,0.07-72.91-32.46-72.95-72.78c-0.05-40.5,32.61-73.26,73.01-73.23
		c40.08,0.03,72.89,32.94,72.88,73.08C582.05,457.67,549.39,490.34,509.13,490.4z M509.46,356.96
		c-33.49-0.03-60.77,27.12-60.86,60.57c-0.09,33.73,27.08,61.06,60.73,61.1c33.52,0.04,60.62-26.95,60.81-60.56
		C570.33,384.37,543.14,356.99,509.46,356.96z"/>
	<path class="st0" d="M509.46,356.96c33.68,0.03,60.87,27.41,60.68,61.11c-0.19,33.61-27.29,60.6-60.81,60.56
		c-33.65-0.04-60.82-27.37-60.73-61.1C448.69,384.08,475.97,356.93,509.46,356.96z M509.13,475.75
		c31.8,0.17,58.05-25.75,58.22-57.48c0.18-31.91-25.58-58.18-57.27-58.42c-32.32-0.25-58.55,25.66-58.61,57.88
		C451.42,449.59,477.24,475.58,509.13,475.75z"/>
	<path class="st1" d="M509.13,475.75c-31.89-0.17-57.72-26.16-57.66-58.02c0.06-32.23,26.29-58.13,58.61-57.88
		c31.7,0.24,57.45,26.51,57.27,58.42C567.18,450,540.93,475.92,509.13,475.75z M486.78,423.74c3.3,0.05,6.02-2.51,6.12-5.75
		c0.1-3.33-2.36-5.93-5.75-6.08c-3.45-0.16-6.44,2.61-6.42,5.92C480.75,421,483.5,423.69,486.78,423.74z M531.62,411.89
		c-3.38-0.02-6.01,2.49-6.08,5.78c-0.06,3.27,2.5,5.94,5.81,6.06c3.43,0.13,6.41-2.68,6.38-5.99
		C537.69,414.6,534.87,411.9,531.62,411.89z"/>
	<path class="st0" d="M486.78,423.74c-3.28-0.05-6.03-2.73-6.05-5.91c-0.02-3.32,2.97-6.08,6.42-5.92c3.39,0.15,5.85,2.75,5.75,6.08
		C492.8,421.23,490.08,423.79,486.78,423.74z"/>
	<path class="st0" d="M531.62,411.89c3.26,0.02,6.07,2.72,6.11,5.85c0.04,3.31-2.95,6.11-6.38,5.99c-3.31-0.12-5.87-2.79-5.81-6.06
		C525.6,414.38,528.24,411.87,531.62,411.89z"/>
	<path class="st1" d="M368.45,574.65v-24.52h8.28v38.66h-5.85l-24.52-24.52v24.52h-8.28v-38.66h5.85L368.45,574.65z"/>
	<path class="st1" d="M385.78,574.98v-11.04c0-9.2,4.6-13.81,13.81-13.81h11.04c9.2,0,13.81,4.6,13.81,13.81v11.04
		c0,9.2-4.6,13.81-13.81,13.81h-11.04C390.38,588.79,385.78,584.18,385.78,574.98z M394.07,563.94v11.04c0,3.68,1.84,5.52,5.52,5.52
		h11.04c3.68,0,5.52-1.84,5.52-5.52v-11.04c0-3.68-1.84-5.52-5.52-5.52h-11.04C395.91,558.41,394.07,560.25,394.07,563.94z"/>
	<path class="st1" d="M456.32,558.41v30.37h-8.28v-30.37h-15.19v-8.28h38.66v8.28H456.32z"/>
	<path class="st1" d="M586.16,551.74v8.28h-30.37v6.9h27.61v8.28h-27.61v15.19h-8.28v-38.66H586.16z"/>
	<path class="st1" d="M594.57,576.59v-11.04c0-9.2,4.6-13.81,13.81-13.81h11.04c9.2,0,13.81,4.6,13.81,13.81v11.04
		c0,9.2-4.6,13.81-13.81,13.81h-11.04C599.17,590.4,594.57,585.8,594.57,576.59z M602.85,565.55v11.04c0,3.68,1.84,5.52,5.52,5.52
		h11.04c3.68,0,5.52-1.84,5.52-5.52v-11.04c0-3.68-1.84-5.52-5.52-5.52h-11.04C604.69,560.03,602.85,561.87,602.85,565.55z"/>
	<path class="st1" d="M642.06,576.59v-24.85h8.28v24.85c0,3.68,1.84,5.52,5.52,5.52h11.04c3.68,0,5.52-1.84,5.52-5.52v-24.85h8.28
		v24.85c0,9.2-4.6,13.81-13.81,13.81h-11.04C646.67,590.4,642.06,585.8,642.06,576.59z"/>
	<path class="st1" d="M720.38,576.26v-24.52h8.28v38.66h-5.85l-24.52-24.52v24.52H690v-38.66h5.85L720.38,576.26z"/>
	<path class="st1" d="M776.68,565.55v11.04c0,9.2-4.6,13.81-13.81,13.81h-24.85v-38.66h24.85
		C772.07,551.74,776.68,556.35,776.68,565.55z M768.39,576.59v-11.04c0-3.68-1.84-5.52-5.52-5.52H746.3v22.09h16.57
		C766.55,582.12,768.39,580.28,768.39,576.59z"/>
</g>
</svg>
